# xmcd CD database file
# Copyright (C) 1993-1998 Ti Kan
#
# Track frame offsets:
# 150
# 16021
# 31301
# 46122
# 58719
# 74767
# 92052
# 102606
# 119892
# 132967
# 148503
# 164391
#
# Disc length: 2428 seconds
# Revision: 0
# Processed by: cddbd v1.4b41PL1 Copyright (c) Steve Scherf et al.
# Submitted via: CDSpectrumPro v3.3.331
#
DISCID=ad097a0c
DTITLE=ศรัณย่า ส่งเสริมสวัสดิ์ - ดาวร้อยเดือน ชุดพิเศษ 5
DYEAR=1900
DGENRE=
TTITLE0=คุณไม่รักทำไมไม่บอก
TTITLE1=เหมือนไม่เคย
TTITLE2=รักปักใจ
TTITLE3=รักฉันนาน ๆ
TTITLE4=ลมสวาท
TTITLE5=รักคุณเข้าแล้ว
TTITLE6=รักไม่รู้ดับ
TTITLE7=ครวญ
TTITLE8=ฟ้ามิอาจกั้น
TTITLE9=พรุ่งนี้ไม่มีอะไรแน่
TTITLE10=แค่คืบ
TTITLE11=รักข้ามขอบฟ้า
EXTD=
EXTT0=
EXTT1=
EXTT2=
EXTT3=
EXTT4=
EXTT5=
EXTT6=
EXTT7=
EXTT8=
EXTT9=
EXTT10=
EXTT11=
PLAYORDER=
